# xmcd
#
# Track frame offsets:
#	182
#	13640
#	25667
#	40335
#	57250
#	72617
#	91217
#	104325
#	118502
#	131827
#	150165
#	166382
#	181627
#	194770
#	209197
#	233057
#	250550
#	272420
#	285612
#	303257
#	320465
#
# Disc length: 4454 seconds
#
# Revision: 6
# Processed by: cddbd v1.5.2PL0 Copyright (c) Steve Scherf et al.
# Submitted via: audiograbber 1.83.01
#
DISCID=20116415
DTITLE=Various Artist - Time-Life - Rhythm and Blues - 1970
DYEAR=1996
DGENRE=Oldies
TTITLE0=Smokey Robinson and The Miracles - The Tears Of A Clown
TTITLE1=Chairmen Of The Board - Give Me Just A Little More Time
TTITLE2=Five Stairsteps - O-o-h Child
TTITLE3=Supremes - Stoned Love
TTITLE4=Delfonics - Didn't I (Blow Your Mind This Time)
TTITLE5=Temptations - Ball Of Confusion (That's What The World Is Today)
TTITLE6=Jackson 5 - I Want You Back
TTITLE7=Clarence Carter - Patches
TTITLE8=Aretha Franklin - Don't Play That Song
TTITLE9=B.B. King - The Thrill Is Gone
TTITLE10=Eddie Holman - Hey There Lonely Girl
TTITLE11=Edwin Starr - War
TTITLE12=Freda Payne - Band Of Gold
TTITLE13=Spinners - It's A Shame
TTITLE14=James Brown - Get Up I Feel Like Being A Sex Machine
TTITLE15=Charles Wright and The Watts 103rd Street Rhythm Band - Express Yourself
TTITLE16=Sly and The Family Stone - Thank You (Falettinme Be Mice Elf Agin)
TTITLE17=Tyrone Davis - Turn Back The Hands Of Time
TTITLE18=Diana Ross - Ain't No Mountain High Enough
TTITLE19=Brook Benton - Rainy Night In Georgia
TTITLE20=Originals - The Bells
EXTD=
EXTT0=Smokey Robinson and The Miracles
EXTT1=The Chairmen Of The Board
EXTT2=The 5 Stairsteps
EXTT3=The Supremes
EXTT4=The Delfonics
EXTT5=The Temptations
EXTT6=The Jackson Five
EXTT7=Clarence Carter
EXTT8=Aretha Franklin
EXTT9=B. B. King
EXTT10=Eddie Holman
EXTT11=Edwin Starr
EXTT12=Freda Payne
EXTT13=The Spinners
EXTT14=James Brown
EXTT15=Charles Wright and The Watts 103rd Street Band
EXTT16=Sly and The Family Stone
EXTT17=Tyrone Davis
EXTT18=Diana Ross
EXTT19=Brook Benton
EXTT20=The Originals
PLAYORDER=
